<mxfile host="app.diagrams.net" modified="2024-05-29T07:40:06.377Z" agent="Mozilla/5.0 (Windows NT 10.0; Win64; x64) AppleWebKit/537.36 (KHTML, like Gecko) Chrome/125.0.0.0 Safari/537.36" etag="pzu3Y48P9hsuLvlGRzgD" version="24.3.1" type="device">
  <diagram id="R2lEEEUBdFMjLlhIrx00" name="Page-1">
    <mxGraphModel dx="2944" dy="596" grid="1" gridSize="10" guides="1" tooltips="1" connect="1" arrows="1" fold="1" page="1" pageScale="1" pageWidth="850" pageHeight="1100" math="0" shadow="0" extFonts="Permanent Marker^https://fonts.googleapis.com/css?family=Permanent+Marker">
      <root>
        <mxCell id="0" />
        <mxCell id="1" parent="0" />
        <mxCell id="IeWaTaDR5QfWAJEZIo10-232" value="" style="rounded=0;whiteSpace=wrap;html=1;" vertex="1" parent="1">
          <mxGeometry x="1200" y="1385" width="455" height="590" as="geometry" />
        </mxCell>
        <mxCell id="IeWaTaDR5QfWAJEZIo10-233" value="Пользователь сайта" style="shape=umlActor;verticalLabelPosition=bottom;verticalAlign=top;html=1;outlineConnect=0;" vertex="1" parent="1">
          <mxGeometry x="1080" y="1535" width="30" height="60" as="geometry" />
        </mxCell>
        <mxCell id="IeWaTaDR5QfWAJEZIo10-234" value="Администратор" style="shape=umlActor;verticalLabelPosition=bottom;verticalAlign=top;html=1;outlineConnect=0;" vertex="1" parent="1">
          <mxGeometry x="1030" y="1710" width="30" height="60" as="geometry" />
        </mxCell>
        <mxCell id="IeWaTaDR5QfWAJEZIo10-235" value="Просмотр заявок" style="ellipse;whiteSpace=wrap;html=1;" vertex="1" parent="1">
          <mxGeometry x="1210" y="1680" width="100" height="60" as="geometry" />
        </mxCell>
        <mxCell id="IeWaTaDR5QfWAJEZIo10-236" value="Заполнение заявки" style="ellipse;whiteSpace=wrap;html=1;" vertex="1" parent="1">
          <mxGeometry x="1220" y="1510" width="100" height="60" as="geometry" />
        </mxCell>
        <mxCell id="IeWaTaDR5QfWAJEZIo10-237" value="Отслеживание заявки" style="ellipse;whiteSpace=wrap;html=1;" vertex="1" parent="1">
          <mxGeometry x="1230" y="1415" width="100" height="60" as="geometry" />
        </mxCell>
        <mxCell id="IeWaTaDR5QfWAJEZIo10-238" value="Тренер" style="shape=umlActor;verticalLabelPosition=bottom;verticalAlign=top;html=1;outlineConnect=0;" vertex="1" parent="1">
          <mxGeometry x="1725" y="1850" width="30" height="60" as="geometry" />
        </mxCell>
        <mxCell id="IeWaTaDR5QfWAJEZIo10-239" value="Создания тренировок" style="ellipse;whiteSpace=wrap;html=1;" vertex="1" parent="1">
          <mxGeometry x="1540" y="1700" width="100" height="60" as="geometry" />
        </mxCell>
        <mxCell id="IeWaTaDR5QfWAJEZIo10-241" value="Вожатый" style="shape=umlActor;verticalLabelPosition=bottom;verticalAlign=top;html=1;outlineConnect=0;" vertex="1" parent="1">
          <mxGeometry x="1760" y="1490" width="30" height="60" as="geometry" />
        </mxCell>
        <mxCell id="IeWaTaDR5QfWAJEZIo10-242" value="Присмотр за участниками" style="ellipse;whiteSpace=wrap;html=1;" vertex="1" parent="1">
          <mxGeometry x="1540" y="1450" width="100" height="60" as="geometry" />
        </mxCell>
        <mxCell id="IeWaTaDR5QfWAJEZIo10-243" value="Повар" style="shape=umlActor;verticalLabelPosition=bottom;verticalAlign=top;html=1;outlineConnect=0;" vertex="1" parent="1">
          <mxGeometry x="1110" y="1870" width="30" height="60" as="geometry" />
        </mxCell>
        <mxCell id="IeWaTaDR5QfWAJEZIo10-245" value="Заказ продуктов" style="ellipse;whiteSpace=wrap;html=1;" vertex="1" parent="1">
          <mxGeometry x="1210" y="1890" width="100" height="70" as="geometry" />
        </mxCell>
        <mxCell id="IeWaTaDR5QfWAJEZIo10-247" value="Участник лагеря" style="shape=umlActor;verticalLabelPosition=bottom;verticalAlign=top;html=1;outlineConnect=0;" vertex="1" parent="1">
          <mxGeometry x="1420" y="1260" width="30" height="60" as="geometry" />
        </mxCell>
        <mxCell id="IeWaTaDR5QfWAJEZIo10-444" value="" style="endArrow=classic;html=1;rounded=0;exitX=1;exitY=0.3333333333333333;exitDx=0;exitDy=0;exitPerimeter=0;entryX=0;entryY=0.5;entryDx=0;entryDy=0;" edge="1" parent="1" source="IeWaTaDR5QfWAJEZIo10-233" target="IeWaTaDR5QfWAJEZIo10-236">
          <mxGeometry width="50" height="50" relative="1" as="geometry">
            <mxPoint x="1140.0000000000002" y="1540" as="sourcePoint" />
            <mxPoint x="1200" y="1500" as="targetPoint" />
          </mxGeometry>
        </mxCell>
        <mxCell id="IeWaTaDR5QfWAJEZIo10-448" value="" style="endArrow=classic;html=1;rounded=0;entryX=0;entryY=0.5;entryDx=0;entryDy=0;" edge="1" parent="1" source="IeWaTaDR5QfWAJEZIo10-233" target="IeWaTaDR5QfWAJEZIo10-237">
          <mxGeometry width="50" height="50" relative="1" as="geometry">
            <mxPoint x="1110" y="1570" as="sourcePoint" />
            <mxPoint x="1240" y="1500" as="targetPoint" />
          </mxGeometry>
        </mxCell>
        <mxCell id="IeWaTaDR5QfWAJEZIo10-451" value="" style="endArrow=classic;html=1;rounded=0;exitX=0;exitY=0.3333333333333333;exitDx=0;exitDy=0;exitPerimeter=0;entryX=1;entryY=0.5;entryDx=0;entryDy=0;" edge="1" parent="1" source="IeWaTaDR5QfWAJEZIo10-241" target="IeWaTaDR5QfWAJEZIo10-242">
          <mxGeometry width="50" height="50" relative="1" as="geometry">
            <mxPoint x="1690" y="1520" as="sourcePoint" />
            <mxPoint x="1740" y="1470" as="targetPoint" />
          </mxGeometry>
        </mxCell>
        <mxCell id="IeWaTaDR5QfWAJEZIo10-452" value="" style="endArrow=classic;html=1;rounded=0;exitX=0.5;exitY=0;exitDx=0;exitDy=0;" edge="1" parent="1" source="IeWaTaDR5QfWAJEZIo10-242" target="IeWaTaDR5QfWAJEZIo10-247">
          <mxGeometry width="50" height="50" relative="1" as="geometry">
            <mxPoint x="1700" y="1530" as="sourcePoint" />
            <mxPoint x="1750" y="1480" as="targetPoint" />
          </mxGeometry>
        </mxCell>
        <mxCell id="IeWaTaDR5QfWAJEZIo10-455" value="" style="endArrow=classic;html=1;rounded=0;entryX=-0.026;entryY=0.497;entryDx=0;entryDy=0;entryPerimeter=0;" edge="1" parent="1" source="IeWaTaDR5QfWAJEZIo10-234" target="IeWaTaDR5QfWAJEZIo10-235">
          <mxGeometry width="50" height="50" relative="1" as="geometry">
            <mxPoint x="1070" y="1850" as="sourcePoint" />
            <mxPoint x="1170" y="1740" as="targetPoint" />
          </mxGeometry>
        </mxCell>
        <mxCell id="IeWaTaDR5QfWAJEZIo10-456" value="Проведение тренировок" style="ellipse;whiteSpace=wrap;html=1;" vertex="1" parent="1">
          <mxGeometry x="1450" y="1580" width="100" height="60" as="geometry" />
        </mxCell>
        <mxCell id="IeWaTaDR5QfWAJEZIo10-459" value="" style="endArrow=classic;html=1;rounded=0;entryX=1;entryY=0.5;entryDx=0;entryDy=0;" edge="1" parent="1" source="IeWaTaDR5QfWAJEZIo10-238" target="IeWaTaDR5QfWAJEZIo10-239">
          <mxGeometry width="50" height="50" relative="1" as="geometry">
            <mxPoint x="1690" y="1735" as="sourcePoint" />
            <mxPoint x="1540" y="1710" as="targetPoint" />
          </mxGeometry>
        </mxCell>
        <mxCell id="IeWaTaDR5QfWAJEZIo10-460" value="" style="endArrow=classic;html=1;rounded=0;exitX=0.06;exitY=0.289;exitDx=0;exitDy=0;exitPerimeter=0;entryX=0.906;entryY=0.815;entryDx=0;entryDy=0;entryPerimeter=0;" edge="1" parent="1" source="IeWaTaDR5QfWAJEZIo10-239" target="IeWaTaDR5QfWAJEZIo10-456">
          <mxGeometry width="50" height="50" relative="1" as="geometry">
            <mxPoint x="1770" y="1550" as="sourcePoint" />
            <mxPoint x="1620" y="1525" as="targetPoint" />
          </mxGeometry>
        </mxCell>
        <mxCell id="IeWaTaDR5QfWAJEZIo10-464" value="" style="endArrow=classic;html=1;rounded=0;" edge="1" parent="1" source="IeWaTaDR5QfWAJEZIo10-247" target="IeWaTaDR5QfWAJEZIo10-456">
          <mxGeometry width="50" height="50" relative="1" as="geometry">
            <mxPoint x="1430" y="1340" as="sourcePoint" />
            <mxPoint x="1375" y="1260" as="targetPoint" />
          </mxGeometry>
        </mxCell>
        <mxCell id="IeWaTaDR5QfWAJEZIo10-465" value="Обработка заявки" style="ellipse;whiteSpace=wrap;html=1;" vertex="1" parent="1">
          <mxGeometry x="1260" y="1580" width="100" height="60" as="geometry" />
        </mxCell>
        <mxCell id="IeWaTaDR5QfWAJEZIo10-467" value="" style="endArrow=classic;html=1;rounded=0;entryX=0;entryY=0;entryDx=0;entryDy=0;exitX=1;exitY=1;exitDx=0;exitDy=0;" edge="1" parent="1" source="IeWaTaDR5QfWAJEZIo10-236" target="IeWaTaDR5QfWAJEZIo10-465">
          <mxGeometry width="50" height="50" relative="1" as="geometry">
            <mxPoint x="1350" y="1503" as="sourcePoint" />
            <mxPoint x="1460" y="1507" as="targetPoint" />
          </mxGeometry>
        </mxCell>
        <mxCell id="IeWaTaDR5QfWAJEZIo10-469" value="" style="endArrow=classic;html=1;rounded=0;entryX=0.244;entryY=0.926;entryDx=0;entryDy=0;entryPerimeter=0;exitX=0.73;exitY=0.064;exitDx=0;exitDy=0;exitPerimeter=0;" edge="1" parent="1" source="IeWaTaDR5QfWAJEZIo10-235" target="IeWaTaDR5QfWAJEZIo10-465">
          <mxGeometry width="50" height="50" relative="1" as="geometry">
            <mxPoint x="1080" y="1760" as="sourcePoint" />
            <mxPoint x="1242" y="1760" as="targetPoint" />
          </mxGeometry>
        </mxCell>
        <mxCell id="IeWaTaDR5QfWAJEZIo10-470" value="" style="endArrow=classic;html=1;rounded=0;entryX=0;entryY=0.5;entryDx=0;entryDy=0;" edge="1" parent="1" source="IeWaTaDR5QfWAJEZIo10-243" target="IeWaTaDR5QfWAJEZIo10-245">
          <mxGeometry width="50" height="50" relative="1" as="geometry">
            <mxPoint x="1090" y="1770" as="sourcePoint" />
            <mxPoint x="1252" y="1770" as="targetPoint" />
          </mxGeometry>
        </mxCell>
        <mxCell id="IeWaTaDR5QfWAJEZIo10-471" value="Приготовление продуктов" style="ellipse;whiteSpace=wrap;html=1;" vertex="1" parent="1">
          <mxGeometry x="1275" y="1800" width="100" height="70" as="geometry" />
        </mxCell>
        <mxCell id="IeWaTaDR5QfWAJEZIo10-472" value="" style="endArrow=classic;html=1;rounded=0;entryX=0;entryY=1;entryDx=0;entryDy=0;exitX=0.766;exitY=0.068;exitDx=0;exitDy=0;exitPerimeter=0;" edge="1" parent="1" source="IeWaTaDR5QfWAJEZIo10-245" target="IeWaTaDR5QfWAJEZIo10-471">
          <mxGeometry width="50" height="50" relative="1" as="geometry">
            <mxPoint x="1150" y="1911" as="sourcePoint" />
            <mxPoint x="1235" y="1915" as="targetPoint" />
          </mxGeometry>
        </mxCell>
        <mxCell id="IeWaTaDR5QfWAJEZIo10-473" value="" style="endArrow=classic;html=1;rounded=0;exitX=0.5;exitY=0;exitDx=0;exitDy=0;" edge="1" parent="1" source="IeWaTaDR5QfWAJEZIo10-471" target="IeWaTaDR5QfWAJEZIo10-247">
          <mxGeometry width="50" height="50" relative="1" as="geometry">
            <mxPoint x="1160" y="1921" as="sourcePoint" />
            <mxPoint x="1245" y="1925" as="targetPoint" />
          </mxGeometry>
        </mxCell>
        <mxCell id="IeWaTaDR5QfWAJEZIo10-474" value="" style="endArrow=classic;html=1;rounded=0;exitX=0;exitY=0.5;exitDx=0;exitDy=0;" edge="1" parent="1" source="IeWaTaDR5QfWAJEZIo10-471" target="IeWaTaDR5QfWAJEZIo10-234">
          <mxGeometry width="50" height="50" relative="1" as="geometry">
            <mxPoint x="1220" y="1810" as="sourcePoint" />
            <mxPoint x="1305" y="1814" as="targetPoint" />
          </mxGeometry>
        </mxCell>
        <mxCell id="IeWaTaDR5QfWAJEZIo10-475" value="" style="endArrow=classic;html=1;rounded=0;" edge="1" parent="1" source="IeWaTaDR5QfWAJEZIo10-471" target="IeWaTaDR5QfWAJEZIo10-238">
          <mxGeometry width="50" height="50" relative="1" as="geometry">
            <mxPoint x="1400" y="1820" as="sourcePoint" />
            <mxPoint x="1485" y="1824" as="targetPoint" />
          </mxGeometry>
        </mxCell>
        <mxCell id="IeWaTaDR5QfWAJEZIo10-478" value="" style="endArrow=classic;html=1;rounded=0;exitX=1;exitY=0;exitDx=0;exitDy=0;" edge="1" parent="1" source="IeWaTaDR5QfWAJEZIo10-471" target="IeWaTaDR5QfWAJEZIo10-241">
          <mxGeometry width="50" height="50" relative="1" as="geometry">
            <mxPoint x="1415" y="1766" as="sourcePoint" />
            <mxPoint x="1500" y="1770" as="targetPoint" />
          </mxGeometry>
        </mxCell>
        <mxCell id="IeWaTaDR5QfWAJEZIo10-480" value="" style="endArrow=classic;html=1;rounded=0;exitX=0;exitY=1;exitDx=0;exitDy=0;exitPerimeter=0;entryX=0.5;entryY=0;entryDx=0;entryDy=0;" edge="1" parent="1" source="IeWaTaDR5QfWAJEZIo10-241" target="IeWaTaDR5QfWAJEZIo10-481">
          <mxGeometry width="50" height="50" relative="1" as="geometry">
            <mxPoint x="1895" y="1590" as="sourcePoint" />
            <mxPoint x="2290" y="1340" as="targetPoint" />
          </mxGeometry>
        </mxCell>
        <mxCell id="IeWaTaDR5QfWAJEZIo10-481" value="Обеспечение отдыха" style="ellipse;whiteSpace=wrap;html=1;" vertex="1" parent="1">
          <mxGeometry x="1410" y="1770" width="100" height="60" as="geometry" />
        </mxCell>
        <mxCell id="IeWaTaDR5QfWAJEZIo10-482" value="" style="endArrow=classic;html=1;rounded=0;exitX=0.335;exitY=0.062;exitDx=0;exitDy=0;exitPerimeter=0;" edge="1" parent="1" source="IeWaTaDR5QfWAJEZIo10-481" target="IeWaTaDR5QfWAJEZIo10-247">
          <mxGeometry width="50" height="50" relative="1" as="geometry">
            <mxPoint x="1790" y="1620" as="sourcePoint" />
            <mxPoint x="1580" y="1770" as="targetPoint" />
          </mxGeometry>
        </mxCell>
      </root>
    </mxGraphModel>
  </diagram>
</mxfile>
